<svg width="160" height="173" viewBox="0 0 160 173" fill="none" xmlns="http://www.w3.org/2000/svg">
<circle cx="80" cy="87" r="80" fill="#9CA3AF"/>
<path d="M89.9091 49L89.9091 142.091H53.1818C46.1515 142.091 40.1515 140.833 35.1818 138.318C30.1818 135.833 26.3788 132.303 23.7727 127.727C21.1364 123.182 19.8182 117.833 19.8182 111.682C19.8182 105.5 21.1515 100.182 23.8182 95.7273C26.4848 91.303 30.3485 87.9091 35.4091 85.5455C40.4394 83.1818 46.5303 82 53.6818 82H78.2727V97.8182H56.8636C53.1061 97.8182 49.9848 98.3333 47.5 99.3636C45.0151 100.394 43.1667 101.939 41.9545 104C40.7121 106.061 40.0909 108.621 40.0909 111.682C40.0909 114.773 40.7121 117.379 41.9545 119.5C43.1667 121.621 45.0303 123.227 47.5455 124.318C50.0303 125.439 53.1667 126 56.9545 126H70.2273L70.2273 49H89.9091ZM39.6364 91.3636L16.5 49H38.2273L60.8636 91.3636L39.6364 91.3636Z" fill="#475569"/>
<path d="M70.0909 132V38.9091H106.818C113.848 38.9091 119.848 40.1667 124.818 42.6818C129.818 45.1667 133.621 48.697 136.227 53.2727C138.864 57.8182 140.182 63.1667 140.182 69.3182C140.182 75.5 138.848 80.8182 136.182 85.2727C133.515 89.697 129.652 93.0909 124.591 95.4545C119.561 97.8182 113.47 99 106.318 99H81.7273V83.1818H103.136C106.894 83.1818 110.015 82.6667 112.5 81.6364C114.985 80.6061 116.833 79.0606 118.045 77C119.288 74.9394 119.909 72.3788 119.909 69.3182C119.909 66.2273 119.288 63.6212 118.045 61.5C116.833 59.3788 114.97 57.7727 112.455 56.6818C109.97 55.5606 106.833 55 103.045 55H89.7727V132H70.0909ZM120.364 89.6364L143.5 132H121.773L99.1364 89.6364H120.364Z" fill="#475569"/>
<path d="M89.9091 41L89.9091 134.091H53.1818C46.1515 134.091 40.1515 132.833 35.1818 130.318C30.1818 127.833 26.3788 124.303 23.7727 119.727C21.1364 115.182 19.8182 109.833 19.8182 103.682C19.8182 97.5 21.1515 92.1818 23.8182 87.7273C26.4848 83.303 30.3485 79.9091 35.4091 77.5455C40.4394 75.1818 46.5303 74 53.6818 74H78.2727V89.8182H56.8636C53.1061 89.8182 49.9848 90.3333 47.5 91.3636C45.0151 92.3939 43.1667 93.9394 41.9545 96C40.7121 98.0606 40.0909 100.621 40.0909 103.682C40.0909 106.773 40.7121 109.379 41.9545 111.5C43.1667 113.621 45.0303 115.227 47.5455 116.318C50.0303 117.439 53.1667 118 56.9545 118H70.2273L70.2273 41H89.9091ZM39.6364 83.3636L16.5 41H38.2273L60.8636 83.3636L39.6364 83.3636Z" fill="#34D399"/>
<path d="M70.0909 124V30.9091H106.818C113.848 30.9091 119.848 32.1667 124.818 34.6818C129.818 37.1667 133.621 40.697 136.227 45.2727C138.864 49.8182 140.182 55.1667 140.182 61.3182C140.182 67.5 138.848 72.8182 136.182 77.2727C133.515 81.697 129.652 85.0909 124.591 87.4545C119.561 89.8182 113.47 91 106.318 91H81.7273V75.1818H103.136C106.894 75.1818 110.015 74.6667 112.5 73.6364C114.985 72.6061 116.833 71.0606 118.045 69C119.288 66.9394 119.909 64.3788 119.909 61.3182C119.909 58.2273 119.288 55.6212 118.045 53.5C116.833 51.3788 114.97 49.7727 112.455 48.6818C109.97 47.5606 106.833 47 103.045 47H89.7727V124H70.0909ZM120.364 81.6364L143.5 124H121.773L99.1364 81.6364H120.364Z" fill="#34D399"/>
</svg>
