<svg width="139" height="101" viewBox="0 0 139 101" fill="none" xmlns="http://www.w3.org/2000/svg">
<rect x="57.9838" y="2" width="15.0894" height="88.6504" fill="#1E293B"/>
<path d="M66.4716 23.546L70.3325 19.556L75.3518 15.566L81.5293 12.6642L87.7069 11.2132L94.2705 10.4878L100.834 11.2132L108.17 13.3896L114.734 16.6541L119.753 20.2814L124 24.6341" stroke="#1E293B" stroke-width="20"/>
<path d="M66.4716 69.1044L62.5473 73.0944L57.4457 77.0844L51.1669 79.9862L44.8881 81.4371L38.2169 82.1626L31.5456 81.4371L24.0895 79.2608L17.4182 75.9962L12.3167 72.369L8.00001 68.0163" stroke="#1E293B" stroke-width="20"/>
<rect x="64.9838" y="10" width="15.0894" height="88.6504" fill="#34D399"/>
<path d="M73.4716 31.546L77.3325 27.556L82.3518 23.566L88.5293 20.6642L94.7069 19.2132L101.271 18.4878L107.834 19.2132L115.17 21.3896L121.734 24.6541L126.753 28.2814L131 32.6341" stroke="#34D399" stroke-width="20"/>
<path d="M73.4716 77.1044L69.5473 81.0944L64.4457 85.0844L58.1669 87.9862L51.8881 89.4371L45.2169 90.1626L38.5456 89.4371L31.0895 87.2608L24.4182 83.9962L19.3167 80.369L15 76.0163" stroke="#34D399" stroke-width="20"/>
</svg>
