<svg width="163" height="156" viewBox="0 0 163 156" fill="none" xmlns="http://www.w3.org/2000/svg">
<path d="M53.7273 125V55.1818H72.1818V67.5H73C74.4545 63.4091 76.8788 60.1818 80.2727 57.8182C83.6667 55.4545 87.7273 54.2727 92.4545 54.2727C97.2424 54.2727 101.318 55.4697 104.682 57.8636C108.045 60.2273 110.288 63.4394 111.409 67.5H112.136C113.561 63.5 116.136 60.303 119.864 57.9091C123.621 55.4848 128.061 54.2727 133.182 54.2727C139.697 54.2727 144.985 56.3485 149.045 60.5C153.136 64.6212 155.182 70.4697 155.182 78.0455V125H135.864V81.8636C135.864 77.9848 134.833 75.0758 132.773 73.1364C130.712 71.197 128.136 70.2273 125.045 70.2273C121.53 70.2273 118.788 71.3485 116.818 73.5909C114.848 75.803 113.864 78.7273 113.864 82.3636V125H95.0909V81.4545C95.0909 78.0303 94.1061 75.303 92.1364 73.2727C90.197 71.2424 87.6364 70.2273 84.4545 70.2273C82.303 70.2273 80.3636 70.7727 78.6364 71.8636C76.9394 72.9242 75.5909 74.4242 74.5909 76.3636C73.5909 78.2727 73.0909 80.5152 73.0909 83.0909V125H53.7273Z" fill="white"/>
<path d="M7.72727 125V55.1818H26.5V67.3636H27.2273C28.5 63.0303 30.6364 59.7576 33.6364 57.5455C36.6364 55.303 40.0909 54.1818 44 54.1818C44.9697 54.1818 46.0152 54.2424 47.1364 54.3636C48.2576 54.4848 49.2424 54.6515 50.0909 54.8636V72.0455C49.1818 71.7727 47.9242 71.5303 46.3182 71.3182C44.7121 71.1061 43.2424 71 41.9091 71C39.0606 71 36.5152 71.6212 34.2727 72.8636C32.0606 74.0758 30.303 75.7727 29 77.9545C27.7273 80.1364 27.0909 82.6515 27.0909 85.5V125H7.72727Z" fill="white"/>
<path d="M47.096 149.856C44.024 149.856 41.08 149.515 38.264 148.832C35.448 148.235 33.0587 147.296 31.096 146.016L36.472 131.552C38.776 133.173 41.592 133.984 44.92 133.984C47.3947 133.984 49.3573 133.131 50.808 131.424C52.344 129.803 53.112 127.328 53.112 124V55.136H73.08V123.872C73.08 131.808 70.8187 138.123 66.296 142.816C61.7733 147.509 55.3733 149.856 47.096 149.856ZM63.096 45.536C59.4267 45.536 56.44 44.4693 54.136 42.336C51.832 40.2027 50.68 37.5573 50.68 34.4C50.68 31.2427 51.832 28.5973 54.136 26.464C56.44 24.3307 59.4267 23.264 63.096 23.264C66.7653 23.264 69.752 24.288 72.056 26.336C74.36 28.2987 75.512 30.8587 75.512 34.016C75.512 37.344 74.36 40.1173 72.056 42.336C69.8373 44.4693 66.8507 45.536 63.096 45.536Z" fill="white"/>
</svg>
