<svg width="790" height="156" viewBox="0 0 790 156" fill="none" xmlns="http://www.w3.org/2000/svg">
<path d="M53.7273 125V55.1818H72.1818V67.5H73C74.4545 63.4091 76.8788 60.1818 80.2727 57.8182C83.6667 55.4545 87.7273 54.2727 92.4545 54.2727C97.2424 54.2727 101.318 55.4697 104.682 57.8636C108.045 60.2273 110.288 63.4394 111.409 67.5H112.136C113.561 63.5 116.136 60.303 119.864 57.9091C123.621 55.4848 128.061 54.2727 133.182 54.2727C139.697 54.2727 144.985 56.3485 149.045 60.5C153.136 64.6212 155.182 70.4697 155.182 78.0455V125H135.864V81.8636C135.864 77.9848 134.833 75.0758 132.773 73.1364C130.712 71.197 128.136 70.2273 125.045 70.2273C121.53 70.2273 118.788 71.3485 116.818 73.5909C114.848 75.803 113.864 78.7273 113.864 82.3636V125H95.0909V81.4545C95.0909 78.0303 94.1061 75.303 92.1364 73.2727C90.197 71.2424 87.6364 70.2273 84.4545 70.2273C82.303 70.2273 80.3636 70.7727 78.6364 71.8636C76.9394 72.9242 75.5909 74.4242 74.5909 76.3636C73.5909 78.2727 73.0909 80.5152 73.0909 83.0909V125H53.7273ZM194.226 126.318C189.772 126.318 185.802 125.545 182.317 124C178.832 122.424 176.075 120.106 174.045 117.045C172.045 113.955 171.045 110.106 171.045 105.5C171.045 101.621 171.757 98.3636 173.181 95.7273C174.605 93.0909 176.545 90.9697 178.999 89.3636C181.454 87.7576 184.242 86.5455 187.363 85.7273C190.514 84.9091 193.817 84.3333 197.272 84C201.332 83.5758 204.605 83.1818 207.09 82.8182C209.575 82.4242 211.378 81.8485 212.499 81.0909C213.62 80.3333 214.181 79.2121 214.181 77.7273V77.4545C214.181 74.5758 213.272 72.3485 211.454 70.7727C209.666 69.197 207.12 68.4091 203.817 68.4091C200.332 68.4091 197.56 69.1818 195.499 70.7273C193.438 72.2424 192.075 74.1515 191.408 76.4545L173.499 75C174.408 70.7576 176.196 67.0909 178.863 64C181.529 60.8788 184.969 58.4848 189.181 56.8182C193.423 55.1212 198.332 54.2727 203.908 54.2727C207.787 54.2727 211.499 54.7273 215.045 55.6364C218.62 56.5455 221.787 57.9545 224.545 59.8636C227.332 61.7727 229.529 64.2273 231.135 67.2273C232.742 70.197 233.545 73.7576 233.545 77.9091V125H215.181V115.318H214.635C213.514 117.5 212.014 119.424 210.135 121.091C208.257 122.727 205.999 124.015 203.363 124.955C200.726 125.864 197.681 126.318 194.226 126.318ZM199.772 112.955C202.62 112.955 205.135 112.394 207.317 111.273C209.499 110.121 211.211 108.576 212.454 106.636C213.696 104.697 214.317 102.5 214.317 100.045V92.6364C213.711 93.0303 212.878 93.3939 211.817 93.7273C210.787 94.0303 209.62 94.3182 208.317 94.5909C207.014 94.8333 205.711 95.0606 204.408 95.2727C203.105 95.4545 201.923 95.6212 200.863 95.7727C198.59 96.1061 196.605 96.6364 194.908 97.3636C193.211 98.0909 191.893 99.0758 190.954 100.318C190.014 101.53 189.545 103.045 189.545 104.864C189.545 107.5 190.499 109.515 192.408 110.909C194.348 112.273 196.802 112.955 199.772 112.955ZM267.931 84.6364V125H248.567V55.1818H267.022V67.5H267.84C269.385 63.4394 271.976 60.2273 275.613 57.8636C279.249 55.4697 283.658 54.2727 288.84 54.2727C293.688 54.2727 297.916 55.3333 301.522 57.4545C305.128 59.5758 307.931 62.6061 309.931 66.5455C311.931 70.4545 312.931 75.1212 312.931 80.5455V125H293.567V84C293.598 79.7273 292.507 76.3939 290.295 74C288.082 71.5758 285.037 70.3636 281.158 70.3636C278.552 70.3636 276.249 70.9242 274.249 72.0455C272.279 73.1667 270.734 74.803 269.613 76.9545C268.522 79.0758 267.961 81.6364 267.931 84.6364ZM359.647 152.636C353.374 152.636 347.995 151.773 343.51 150.045C339.056 148.348 335.51 146.03 332.874 143.091C330.238 140.152 328.526 136.848 327.738 133.182L345.647 130.773C346.192 132.167 347.056 133.47 348.238 134.682C349.42 135.894 350.98 136.864 352.92 137.591C354.889 138.348 357.283 138.727 360.101 138.727C364.313 138.727 367.783 137.697 370.51 135.636C373.268 133.606 374.647 130.197 374.647 125.409V112.636H373.829C372.98 114.576 371.707 116.409 370.01 118.136C368.313 119.864 366.132 121.273 363.465 122.364C360.798 123.455 357.617 124 353.92 124C348.677 124 343.904 122.788 339.601 120.364C335.329 117.909 331.92 114.167 329.374 109.136C326.859 104.076 325.601 97.6818 325.601 89.9545C325.601 82.0455 326.889 75.4394 329.465 70.1364C332.041 64.8333 335.465 60.8636 339.738 58.2273C344.041 55.5909 348.753 54.2727 353.874 54.2727C357.783 54.2727 361.056 54.9394 363.692 56.2727C366.329 57.5758 368.45 59.2121 370.056 61.1818C371.692 63.1212 372.95 65.0303 373.829 66.9091H374.556V55.1818H393.783V125.682C393.783 131.621 392.329 136.591 389.42 140.591C386.51 144.591 382.48 147.591 377.329 149.591C372.207 151.621 366.313 152.636 359.647 152.636ZM360.056 109.455C363.177 109.455 365.813 108.682 367.965 107.136C370.147 105.561 371.813 103.318 372.965 100.409C374.147 97.4697 374.738 93.9545 374.738 89.8636C374.738 85.7727 374.162 82.2273 373.01 79.2273C371.859 76.197 370.192 73.8485 368.01 72.1818C365.829 70.5151 363.177 69.6818 360.056 69.6818C356.874 69.6818 354.192 70.5455 352.01 72.2727C349.829 73.9697 348.177 76.3333 347.056 79.3636C345.935 82.3939 345.374 85.8939 345.374 89.8636C345.374 93.8939 345.935 97.3788 347.056 100.318C348.207 103.227 349.859 105.485 352.01 107.091C354.192 108.667 356.874 109.455 360.056 109.455ZM429.101 126.318C424.647 126.318 420.677 125.545 417.192 124C413.707 122.424 410.95 120.106 408.92 117.045C406.92 113.955 405.92 110.106 405.92 105.5C405.92 101.621 406.632 98.3636 408.056 95.7273C409.48 93.0909 411.42 90.9697 413.874 89.3636C416.329 87.7576 419.117 86.5455 422.238 85.7273C425.389 84.9091 428.692 84.3333 432.147 84C436.207 83.5758 439.48 83.1818 441.965 82.8182C444.45 82.4242 446.253 81.8485 447.374 81.0909C448.495 80.3333 449.056 79.2121 449.056 77.7273V77.4545C449.056 74.5758 448.147 72.3485 446.329 70.7727C444.541 69.197 441.995 68.4091 438.692 68.4091C435.207 68.4091 432.435 69.1818 430.374 70.7273C428.313 72.2424 426.95 74.1515 426.283 76.4545L408.374 75C409.283 70.7576 411.071 67.0909 413.738 64C416.404 60.8788 419.844 58.4848 424.056 56.8182C428.298 55.1212 433.207 54.2727 438.783 54.2727C442.662 54.2727 446.374 54.7273 449.92 55.6364C453.495 56.5455 456.662 57.9545 459.42 59.8636C462.207 61.7727 464.404 64.2273 466.01 67.2273C467.617 70.197 468.42 73.7576 468.42 77.9091V125H450.056V115.318H449.51C448.389 117.5 446.889 119.424 445.01 121.091C443.132 122.727 440.874 124.015 438.238 124.955C435.601 125.864 432.556 126.318 429.101 126.318ZM434.647 112.955C437.495 112.955 440.01 112.394 442.192 111.273C444.374 110.121 446.086 108.576 447.329 106.636C448.571 104.697 449.192 102.5 449.192 100.045V92.6364C448.586 93.0303 447.753 93.3939 446.692 93.7273C445.662 94.0303 444.495 94.3182 443.192 94.5909C441.889 94.8333 440.586 95.0606 439.283 95.2727C437.98 95.4545 436.798 95.6212 435.738 95.7727C433.465 96.1061 431.48 96.6364 429.783 97.3636C428.086 98.0909 426.768 99.0758 425.829 100.318C424.889 101.53 424.42 103.045 424.42 104.864C424.42 107.5 425.374 109.515 427.283 110.909C429.223 112.273 431.677 112.955 434.647 112.955ZM514.988 126.364C507.927 126.364 501.821 124.864 496.67 121.864C491.548 118.833 487.594 114.621 484.806 109.227C482.018 103.803 480.624 97.5152 480.624 90.3636C480.624 83.1515 482.018 76.8485 484.806 71.4545C487.594 66.0303 491.548 61.8182 496.67 58.8182C501.821 55.7879 507.927 54.2727 514.988 54.2727C522.048 54.2727 528.139 55.7879 533.26 58.8182C538.412 61.8182 542.382 66.0303 545.17 71.4545C547.957 76.8485 549.351 83.1515 549.351 90.3636C549.351 97.5152 547.957 103.803 545.17 109.227C542.382 114.621 538.412 118.833 533.26 121.864C528.139 124.864 522.048 126.364 514.988 126.364ZM515.079 111.364C518.291 111.364 520.973 110.455 523.124 108.636C525.276 106.788 526.897 104.273 527.988 101.091C529.109 97.9091 529.67 94.2879 529.67 90.2273C529.67 86.1667 529.109 82.5455 527.988 79.3636C526.897 76.1818 525.276 73.6667 523.124 71.8182C520.973 69.9697 518.291 69.0455 515.079 69.0455C511.836 69.0455 509.109 69.9697 506.897 71.8182C504.715 73.6667 503.063 76.1818 501.942 79.3636C500.851 82.5455 500.306 86.1667 500.306 90.2273C500.306 94.2879 500.851 97.9091 501.942 101.091C503.063 104.273 504.715 106.788 506.897 108.636C509.109 110.455 511.836 111.364 515.079 111.364ZM581.851 126.318C577.397 126.318 573.427 125.545 569.942 124C566.457 122.424 563.7 120.106 561.67 117.045C559.67 113.955 558.67 110.106 558.67 105.5C558.67 101.621 559.382 98.3636 560.806 95.7273C562.23 93.0909 564.17 90.9697 566.624 89.3636C569.079 87.7576 571.867 86.5455 574.988 85.7273C578.139 84.9091 581.442 84.3333 584.897 84C588.957 83.5758 592.23 83.1818 594.715 82.8182C597.2 82.4242 599.003 81.8485 600.124 81.0909C601.245 80.3333 601.806 79.2121 601.806 77.7273V77.4545C601.806 74.5758 600.897 72.3485 599.079 70.7727C597.291 69.197 594.745 68.4091 591.442 68.4091C587.957 68.4091 585.185 69.1818 583.124 70.7273C581.063 72.2424 579.7 74.1515 579.033 76.4545L561.124 75C562.033 70.7576 563.821 67.0909 566.488 64C569.154 60.8788 572.594 58.4848 576.806 56.8182C581.048 55.1212 585.957 54.2727 591.533 54.2727C595.412 54.2727 599.124 54.7273 602.67 55.6364C606.245 56.5455 609.412 57.9545 612.17 59.8636C614.957 61.7727 617.154 64.2273 618.76 67.2273C620.367 70.197 621.17 73.7576 621.17 77.9091V125H602.806V115.318H602.26C601.139 117.5 599.639 119.424 597.76 121.091C595.882 122.727 593.624 124.015 590.988 124.955C588.351 125.864 585.306 126.318 581.851 126.318ZM587.397 112.955C590.245 112.955 592.76 112.394 594.942 111.273C597.124 110.121 598.836 108.576 600.079 106.636C601.321 104.697 601.942 102.5 601.942 100.045V92.6364C601.336 93.0303 600.503 93.3939 599.442 93.7273C598.412 94.0303 597.245 94.3182 595.942 94.5909C594.639 94.8333 593.336 95.0606 592.033 95.2727C590.73 95.4545 589.548 95.6212 588.488 95.7727C586.215 96.1061 584.23 96.6364 582.533 97.3636C580.836 98.0909 579.518 99.0758 578.579 100.318C577.639 101.53 577.17 103.045 577.17 104.864C577.17 107.5 578.124 109.515 580.033 110.909C581.973 112.273 584.427 112.955 587.397 112.955ZM655.556 84.6364V125H636.192V55.1818H654.647V67.5H655.465C657.01 63.4394 659.601 60.2273 663.238 57.8636C666.874 55.4697 671.283 54.2727 676.465 54.2727C681.314 54.2727 685.541 55.3333 689.147 57.4545C692.753 59.5758 695.556 62.6061 697.556 66.5455C699.556 70.4545 700.556 75.1212 700.556 80.5455V125H681.192V84C681.223 79.7273 680.132 76.3939 677.92 74C675.707 71.5758 672.662 70.3636 668.783 70.3636C666.177 70.3636 663.874 70.9242 661.874 72.0455C659.904 73.1667 658.359 74.803 657.238 76.9545C656.147 79.0758 655.586 81.6364 655.556 84.6364ZM747.272 152.636C740.999 152.636 735.62 151.773 731.135 150.045C726.681 148.348 723.135 146.03 720.499 143.091C717.863 140.152 716.151 136.848 715.363 133.182L733.272 130.773C733.817 132.167 734.681 133.47 735.863 134.682C737.045 135.894 738.605 136.864 740.545 137.591C742.514 138.348 744.908 138.727 747.726 138.727C751.939 138.727 755.408 137.697 758.135 135.636C760.893 133.606 762.272 130.197 762.272 125.409V112.636H761.454C760.605 114.576 759.332 116.409 757.635 118.136C755.939 119.864 753.757 121.273 751.09 122.364C748.423 123.455 745.242 124 741.545 124C736.302 124 731.529 122.788 727.226 120.364C722.954 117.909 719.545 114.167 716.999 109.136C714.484 104.076 713.226 97.6818 713.226 89.9545C713.226 82.0455 714.514 75.4394 717.09 70.1364C719.666 64.8333 723.09 60.8636 727.363 58.2273C731.666 55.5909 736.378 54.2727 741.499 54.2727C745.408 54.2727 748.681 54.9394 751.317 56.2727C753.954 57.5758 756.075 59.2121 757.681 61.1818C759.317 63.1212 760.575 65.0303 761.454 66.9091H762.181V55.1818H781.408V125.682C781.408 131.621 779.954 136.591 777.045 140.591C774.135 144.591 770.105 147.591 764.954 149.591C759.832 151.621 753.939 152.636 747.272 152.636ZM747.681 109.455C750.802 109.455 753.439 108.682 755.59 107.136C757.772 105.561 759.439 103.318 760.59 100.409C761.772 97.4697 762.363 93.9545 762.363 89.8636C762.363 85.7727 761.787 82.2273 760.635 79.2273C759.484 76.197 757.817 73.8485 755.635 72.1818C753.454 70.5151 750.802 69.6818 747.681 69.6818C744.499 69.6818 741.817 70.5455 739.635 72.2727C737.454 73.9697 735.802 76.3333 734.681 79.3636C733.56 82.3939 732.999 85.8939 732.999 89.8636C732.999 93.8939 733.56 97.3788 734.681 100.318C735.832 103.227 737.484 105.485 739.635 107.091C741.817 108.667 744.499 109.455 747.681 109.455Z" fill="white"/>
<path d="M7.72727 125V55.1818H26.5V67.3636H27.2273C28.5 63.0303 30.6364 59.7576 33.6364 57.5455C36.6364 55.303 40.0909 54.1818 44 54.1818C44.9697 54.1818 46.0152 54.2424 47.1364 54.3636C48.2576 54.4848 49.2424 54.6515 50.0909 54.8636V72.0455C49.1818 71.7727 47.9242 71.5303 46.3182 71.3182C44.7121 71.1061 43.2424 71 41.9091 71C39.0606 71 36.5152 71.6212 34.2727 72.8636C32.0606 74.0758 30.303 75.7727 29 77.9545C27.7273 80.1364 27.0909 82.6515 27.0909 85.5V125H7.72727Z" fill="white"/>
<path d="M47.096 149.856C44.024 149.856 41.08 149.515 38.264 148.832C35.448 148.235 33.0587 147.296 31.096 146.016L36.472 131.552C38.776 133.173 41.592 133.984 44.92 133.984C47.3947 133.984 49.3573 133.131 50.808 131.424C52.344 129.803 53.112 127.328 53.112 124V55.136H73.08V123.872C73.08 131.808 70.8187 138.123 66.296 142.816C61.7733 147.509 55.3733 149.856 47.096 149.856ZM63.096 45.536C59.4267 45.536 56.44 44.4693 54.136 42.336C51.832 40.2027 50.68 37.5573 50.68 34.4C50.68 31.2427 51.832 28.5973 54.136 26.464C56.44 24.3307 59.4267 23.264 63.096 23.264C66.7653 23.264 69.752 24.288 72.056 26.336C74.36 28.2987 75.512 30.8587 75.512 34.016C75.512 37.344 74.36 40.1173 72.056 42.336C69.8373 44.4693 66.8507 45.536 63.096 45.536Z" fill="white"/>
</svg>
